<svg width="28" height="32" viewBox="0 0 28 32" fill="none" xmlns="http://www.w3.org/2000/svg">
<path d="M16.075 10.1687C13.0312 10.2812 5.48124 11.1375 5.48124 17.5125C5.48124 24.3563 14.125 24.6375 16.95 20.2125C17.3562 20.85 19.1625 22.5563 19.7812 23.1375L23.3312 19.6375C23.3312 19.6375 21.3125 18.0562 21.3125 16.3375V7.14375C21.3125 5.5625 19.7812 2 14.2937 2C8.79374 2 5.87499 5.4375 5.87499 8.51875L10.4687 8.94375C11.4875 5.85 13.8562 5.85 13.8562 5.85C16.4 5.84375 16.075 7.7125 16.075 10.1687ZM16.075 15.5938C16.075 20.5938 10.8125 19.8438 10.8125 16.6688C10.8125 13.7188 13.9687 13.125 16.075 13.0562V15.5938ZM24.575 25.8125C24.0937 26.4375 20.2 30 13.6687 30C7.13749 30 2.13749 25.5312 0.606243 23.6875C0.181243 23.2062 0.668743 22.9813 0.949993 23.1688C5.53124 25.95 12.6875 30.5312 24.2312 25.0625C24.7 24.8312 25.0625 25.1875 24.575 25.8125ZM27.0625 25.95C26.6562 26.9375 26.0625 27.625 25.7375 27.8875C25.3937 28.1688 25.1437 28.0562 25.3312 27.65C25.5187 27.2437 26.5375 24.7437 26.125 24.2125C25.7187 23.6938 23.8125 23.9438 23.125 24.0125C22.45 24.075 22.3125 24.1375 22.25 23.9937C22.1062 23.6375 23.6062 23.025 24.5937 22.9C25.575 22.7875 27.1562 22.85 27.4687 23.2563C27.7 23.575 27.4687 24.95 27.0625 25.95Z" fill="#26262B"/>
</svg>
