<svg width="16" height="16" viewBox="0 0 16 16" fill="none" xmlns="http://www.w3.org/2000/svg">
<g clip-path="url(#clip0_8_28)">
<rect width="15.5" height="15.5" transform="matrix(0 -1 1 0 0 15.75)" fill="#D1B378"/>
<path d="M0 8C0 12.2812 3.46875 15.75 7.75 15.75C12.0312 15.75 15.5 12.2812 15.5 8C15.5 3.71875 12.0312 0.25 7.75 0.25C3.46875 0.25 0 3.71875 0 8ZM14 8C14 11.4531 11.2031 14.25 7.75 14.25C4.29688 14.25 1.5 11.4531 1.5 8C1.5 4.54688 4.29688 1.75 7.75 1.75C11.2031 1.75 14 4.54688 14 8ZM4.125 9H7.75V11.0938C7.75 11.4281 8.15312 11.5938 8.39062 11.3594L11.4844 8.26562C11.6313 8.11875 11.6313 7.88125 11.4844 7.73438L8.39062 4.64062C8.15312 4.40312 7.75 4.57187 7.75 4.90625V7H4.125C3.91875 7 3.75 7.16875 3.75 7.375V8.625C3.75 8.83125 3.91875 9 4.125 9Z" fill="url(#paint0_linear_8_28)"/>
</g>
<defs>
<linearGradient id="paint0_linear_8_28" x1="0" y1="8" x2="15.5" y2="8" gradientUnits="userSpaceOnUse">
<stop stop-color="#1D024A"/>
<stop offset="1" stop-color="#060133"/>
</linearGradient>
<clipPath id="clip0_8_28">
<rect width="15.5" height="15.5" fill="white" transform="matrix(0 -1 1 0 0 15.75)"/>
</clipPath>
</defs>
</svg>
