<svg width="104" height="16" viewBox="0 0 104 16" fill="none" xmlns="http://www.w3.org/2000/svg">
<path d="M7.58143 14.0002H4.26429V4.6533H7.58143V14.0002ZM5.92107 3.3783C4.86036 3.3783 4 2.60955 4 1.68143C4 1.23561 4.2024 0.80806 4.56267 0.492824C4.92294 0.177587 5.41157 0.000488281 5.92107 0.000488281C6.43057 0.000488281 6.9192 0.177587 7.27947 0.492824C7.63974 0.80806 7.84214 1.23561 7.84214 1.68143C7.84214 2.60955 6.98143 3.3783 5.92107 3.3783ZM19.9964 14.0002H16.6864V9.45018C16.6864 8.3658 16.6614 6.97518 14.9618 6.97518C13.2371 6.97518 12.9729 8.1533 12.9729 9.37205V14.0002H9.65929V4.6533H12.8407V5.9283H12.8871C13.33 5.19393 14.4118 4.41893 16.0257 4.41893C19.3829 4.41893 20 6.3533 20 8.8658V14.0002H19.9964Z" fill="#D1B378"/>
<path d="M57.6036 3.03437C56.1071 1.72187 54.1143 1 51.9964 1C47.625 1 44.0679 4.1125 44.0679 7.9375C44.0679 9.15938 44.4321 10.3531 45.125 11.4062L44 15L48.2036 14.0344C49.3607 14.5875 50.6643 14.8781 51.9929 14.8781H51.9964C56.3643 14.8781 60 11.7656 60 7.94063C60 6.0875 59.1 4.34687 57.6036 3.03437ZM51.9964 13.7094C50.8107 13.7094 49.65 13.4312 48.6393 12.9062L48.4 12.7812L45.9071 13.3531L46.5714 11.225L46.4143 11.0063C45.7536 10.0875 45.4071 9.02812 45.4071 7.9375C45.4071 4.75938 48.3643 2.17188 52 2.17188C53.7607 2.17188 55.4143 2.77187 56.6571 3.8625C57.9 4.95312 58.6643 6.4 58.6607 7.94063C58.6607 11.1219 55.6286 13.7094 51.9964 13.7094ZM55.6107 9.39062C55.4143 9.30313 54.4393 8.88438 54.2571 8.82812C54.075 8.76875 53.9429 8.74062 53.8107 8.91562C53.6786 9.09062 53.3 9.47813 53.1821 9.59688C53.0679 9.7125 52.95 9.72812 52.7536 9.64062C51.5893 9.13125 50.825 8.73125 50.0571 7.57812C49.8536 7.27187 50.2607 7.29375 50.6393 6.63125C50.7036 6.51562 50.6714 6.41563 50.6214 6.32812C50.5714 6.24062 50.175 5.3875 50.0107 5.04063C49.85 4.70312 49.6857 4.75 49.5643 4.74375C49.45 4.7375 49.3179 4.7375 49.1857 4.7375C49.0536 4.7375 48.8393 4.78125 48.6571 4.95312C48.475 5.12813 47.9643 5.54688 47.9643 6.4C47.9643 7.25313 48.675 8.07813 48.7714 8.19375C48.8714 8.30938 50.1679 10.0594 52.1571 10.8125C53.4143 11.2875 53.9071 11.3281 54.5357 11.2469C54.9179 11.1969 55.7071 10.8281 55.8714 10.4219C56.0357 10.0156 56.0357 9.66875 55.9857 9.59688C55.9393 9.51875 55.8071 9.475 55.6107 9.39062Z" fill="#D1B378"/>
<path d="M86 3.5C85.725 3.5 85.5 3.725 85.5 4V4.69063L90.8906 9.11563C91.5375 9.64688 92.4656 9.64688 93.1125 9.11563L98.5 4.69063V4C98.5 3.725 98.275 3.5 98 3.5H86ZM85.5 6.63125V12C85.5 12.275 85.725 12.5 86 12.5H98C98.275 12.5 98.5 12.275 98.5 12V6.63125L94.0625 10.275C92.8625 11.2594 91.1344 11.2594 89.9375 10.275L85.5 6.63125ZM84 4C84 2.89688 84.8969 2 86 2H98C99.1031 2 100 2.89688 100 4V12C100 13.1031 99.1031 14 98 14H86C84.8969 14 84 13.1031 84 12V4Z" fill="#D1B378"/>
</svg>
