<svg width="542" height="64" viewBox="0 0 542 64" fill="none" xmlns="http://www.w3.org/2000/svg">
<path d="M32.15 20.3375C26.0625 20.5625 10.9625 22.275 10.9625 35.025C10.9625 48.7125 28.25 49.275 33.9 40.425C34.7125 41.7 38.325 45.1125 39.5625 46.275L46.6625 39.275C46.6625 39.275 42.625 36.1125 42.625 32.675V14.2875C42.625 11.125 39.5625 4 28.5875 4C17.5875 4 11.75 10.875 11.75 17.0375L20.9375 17.8875C22.975 11.7 27.7125 11.7 27.7125 11.7C32.8 11.6875 32.15 15.425 32.15 20.3375ZM32.15 31.1875C32.15 41.1875 21.625 39.6875 21.625 33.3375C21.625 27.4375 27.9375 26.25 32.15 26.1125V31.1875ZM49.15 51.625C48.1875 52.875 40.4 60 27.3375 60C14.275 60 4.27499 51.0625 1.21249 47.375C0.362494 46.4125 1.33749 45.9625 1.89999 46.3375C11.0625 51.9 25.375 61.0625 48.4625 50.125C49.4 49.6625 50.125 50.375 49.15 51.625ZM54.125 51.9C53.3125 53.875 52.125 55.25 51.475 55.775C50.7875 56.3375 50.2875 56.1125 50.6625 55.3C51.0375 54.4875 53.075 49.4875 52.25 48.425C51.4375 47.3875 47.625 47.8875 46.25 48.025C44.9 48.15 44.625 48.275 44.5 47.9875C44.2125 47.275 47.2125 46.05 49.1875 45.8C51.15 45.575 54.3125 45.7 54.9375 46.5125C55.4 47.15 54.9375 49.9 54.125 51.9Z" fill="#D1B378"/>
<path d="M159.437 8H180.8V56L159.437 8ZM144.562 8H123.2V56L144.562 8ZM152 25.7625L165.437 56H156.312L152.475 46.4H142.637L152 25.7625Z" fill="#D1B378"/>
<path d="M287.838 33.5875C287.812 29 289.888 25.5375 294.088 22.9875C291.738 19.625 288.188 17.775 283.5 17.4125C279.062 17.0625 274.212 20 272.438 20C270.562 20 266.263 17.5375 262.887 17.5375C255.912 17.65 248.5 23.1 248.5 34.1875C248.5 37.4625 249.1 40.8458 250.3 44.3375C251.9 48.925 257.675 60.175 263.7 59.9875C266.85 59.9125 269.075 57.75 273.175 57.75C277.15 57.75 279.212 59.9875 282.725 59.9875C288.8 59.9 294.025 49.675 295.55 45.075C287.4 41.2375 287.838 33.825 287.838 33.5875ZM280.763 13.0625C284.175 9.0125 283.862 5.325 283.763 4C280.75 4.175 277.262 6.05 275.275 8.3625C273.087 10.8375 271.8 13.9 272.075 17.35C275.338 17.6 278.312 15.925 280.763 13.0625Z" fill="#D1B378"/>
<path d="M380.737 49.675C380.737 49.925 380.45 50.125 380.087 50.125C379.675 50.1625 379.388 49.9625 379.388 49.675C379.388 49.425 379.675 49.225 380.038 49.225C380.413 49.1875 380.737 49.3875 380.737 49.675ZM376.85 49.1125C376.763 49.3625 377.013 49.65 377.388 49.725C377.713 49.85 378.087 49.725 378.163 49.475C378.238 49.225 378 48.9375 377.625 48.825C377.3 48.7375 376.938 48.8625 376.85 49.1125ZM382.375 48.9C382.013 48.9875 381.762 49.225 381.8 49.5125C381.837 49.7625 382.163 49.925 382.538 49.8375C382.9 49.75 383.15 49.5125 383.112 49.2625C383.075 49.025 382.737 48.8625 382.375 48.9ZM390.6 1C373.263 1 360 14.1625 360 31.5C360 45.3625 368.725 57.225 381.188 61.4C382.788 61.6875 383.35 60.7 383.35 59.8875C383.35 59.1125 383.312 54.8375 383.312 52.2125C383.312 52.2125 374.562 54.0875 372.725 48.4875C372.725 48.4875 371.3 44.85 369.25 43.9125C369.25 43.9125 366.387 41.95 369.45 41.9875C369.45 41.9875 372.562 42.2375 374.275 45.2125C377.012 50.0375 381.6 48.65 383.388 47.825C383.675 45.825 384.488 44.4375 385.388 43.6125C378.4 42.8375 371.35 41.825 371.35 29.8C371.35 26.3625 372.3 24.6375 374.3 22.4375C373.975 21.625 372.913 18.275 374.625 13.95C377.237 13.1375 383.25 17.325 383.25 17.325C385.75 16.625 388.438 16.2625 391.1 16.2625C393.763 16.2625 396.45 16.625 398.95 17.325C398.95 17.325 404.963 13.125 407.575 13.95C409.288 18.2875 408.225 21.625 407.9 22.4375C409.9 24.65 411.125 26.375 411.125 29.8C411.125 41.8625 403.763 42.825 396.775 43.6125C397.925 44.6 398.9 46.475 398.9 49.4125C398.9 53.625 398.862 58.8375 398.862 59.8625C398.862 60.675 399.438 61.6625 401.025 61.375C413.525 57.225 422 45.3625 422 31.5C422 14.1625 407.938 1 390.6 1ZM372.15 44.1125C371.987 44.2375 372.025 44.525 372.238 44.7625C372.438 44.9625 372.725 45.05 372.887 44.8875C373.05 44.7625 373.012 44.475 372.8 44.2375C372.6 44.0375 372.312 43.95 372.15 44.1125ZM370.8 43.1C370.713 43.2625 370.837 43.4625 371.087 43.5875C371.287 43.7125 371.538 43.675 371.625 43.5C371.712 43.3375 371.587 43.1375 371.337 43.0125C371.087 42.9375 370.887 42.975 370.8 43.1ZM374.85 47.55C374.65 47.7125 374.725 48.0875 375.012 48.325C375.3 48.6125 375.662 48.65 375.825 48.45C375.988 48.2875 375.913 47.9125 375.663 47.675C375.388 47.3875 375.013 47.35 374.85 47.55ZM373.425 45.7125C373.225 45.8375 373.225 46.1625 373.425 46.45C373.625 46.7375 373.962 46.8625 374.125 46.7375C374.325 46.575 374.325 46.25 374.125 45.9625C373.95 45.675 373.625 45.55 373.425 45.7125Z" fill="#D1B378"/>
<path d="M486 4H512.825V30.825H486V4ZM515.175 4H542V30.825H515.175V4ZM486 33.175H512.825V60H486V33.175ZM515.175 33.175H542V60H515.175V33.175Z" fill="#D1B378"/>
</svg>
