<svg width="96" height="16" viewBox="0 0 96 16" fill="none" xmlns="http://www.w3.org/2000/svg">
<path d="M3.58143 14.0002H0.264286V4.6533H3.58143V14.0002ZM1.92107 3.3783C0.860357 3.3783 0 2.60955 0 1.68143C7.59214e-09 1.23561 0.202398 0.80806 0.562669 0.492824C0.92294 0.177587 1.41157 0.000488281 1.92107 0.000488281C2.43057 0.000488281 2.9192 0.177587 3.27947 0.492824C3.63974 0.80806 3.84214 1.23561 3.84214 1.68143C3.84214 2.60955 2.98143 3.3783 1.92107 3.3783ZM15.9964 14.0002H12.6864V9.45018C12.6864 8.3658 12.6614 6.97518 10.9618 6.97518C9.23714 6.97518 8.97286 8.1533 8.97286 9.37205V14.0002H5.65929V4.6533H8.84071V5.9283H8.88714C9.33 5.19393 10.4118 4.41893 12.0257 4.41893C15.3829 4.41893 16 6.3533 16 8.8658V14.0002H15.9964Z" fill="#D1B378"/>
<path d="M53.6036 3.03437C52.1071 1.72187 50.1143 1 47.9964 1C43.625 1 40.0679 4.1125 40.0679 7.9375C40.0679 9.15938 40.4321 10.3531 41.125 11.4062L40 15L44.2036 14.0344C45.3607 14.5875 46.6643 14.8781 47.9929 14.8781H47.9964C52.3643 14.8781 56 11.7656 56 7.94063C56 6.0875 55.1 4.34687 53.6036 3.03437ZM47.9964 13.7094C46.8107 13.7094 45.65 13.4312 44.6393 12.9062L44.4 12.7812L41.9071 13.3531L42.5714 11.225L42.4143 11.0063C41.7536 10.0875 41.4071 9.02812 41.4071 7.9375C41.4071 4.75938 44.3643 2.17188 48 2.17188C49.7607 2.17188 51.4143 2.77187 52.6571 3.8625C53.9 4.95312 54.6643 6.4 54.6607 7.94063C54.6607 11.1219 51.6286 13.7094 47.9964 13.7094ZM51.6107 9.39062C51.4143 9.30313 50.4393 8.88438 50.2571 8.82812C50.075 8.76875 49.9429 8.74062 49.8107 8.91562C49.6786 9.09062 49.3 9.47813 49.1821 9.59688C49.0679 9.7125 48.95 9.72812 48.7536 9.64062C47.5893 9.13125 46.825 8.73125 46.0571 7.57812C45.8536 7.27187 46.2607 7.29375 46.6393 6.63125C46.7036 6.51562 46.6714 6.41563 46.6214 6.32812C46.5714 6.24062 46.175 5.3875 46.0107 5.04063C45.85 4.70312 45.6857 4.75 45.5643 4.74375C45.45 4.7375 45.3179 4.7375 45.1857 4.7375C45.0536 4.7375 44.8393 4.78125 44.6571 4.95312C44.475 5.12813 43.9643 5.54688 43.9643 6.4C43.9643 7.25313 44.675 8.07813 44.7714 8.19375C44.8714 8.30938 46.1679 10.0594 48.1571 10.8125C49.4143 11.2875 49.9071 11.3281 50.5357 11.2469C50.9179 11.1969 51.7071 10.8281 51.8714 10.4219C52.0357 10.0156 52.0357 9.66875 51.9857 9.59688C51.9393 9.51875 51.8071 9.475 51.6107 9.39062Z" fill="#D1B378"/>
<path d="M82 3.5C81.725 3.5 81.5 3.725 81.5 4V4.69063L86.8906 9.11563C87.5375 9.64688 88.4656 9.64688 89.1125 9.11563L94.5 4.69063V4C94.5 3.725 94.275 3.5 94 3.5H82ZM81.5 6.63125V12C81.5 12.275 81.725 12.5 82 12.5H94C94.275 12.5 94.5 12.275 94.5 12V6.63125L90.0625 10.275C88.8625 11.2594 87.1344 11.2594 85.9375 10.275L81.5 6.63125ZM80 4C80 2.89688 80.8969 2 82 2H94C95.1031 2 96 2.89688 96 4V12C96 13.1031 95.1031 14 94 14H82C80.8969 14 80 13.1031 80 12V4Z" fill="#D1B378"/>
</svg>
