<svg width="24" height="25" viewBox="0 0 24 25" fill="none" xmlns="http://www.w3.org/2000/svg">
<path d="M0 12.5C0 19.129 5.37097 24.5 12 24.5C18.629 24.5 24 19.129 24 12.5C24 5.87097 18.629 0.5 12 0.5C5.37097 0.5 0 5.87097 0 12.5ZM21.6774 12.5C21.6774 17.8468 17.3468 22.1774 12 22.1774C6.65323 22.1774 2.32258 17.8468 2.32258 12.5C2.32258 7.15323 6.65323 2.82258 12 2.82258C17.3468 2.82258 21.6774 7.15323 21.6774 12.5ZM6.3871 14.0484H12V17.2903C12 17.8081 12.6242 18.0645 12.9919 17.7016L17.7823 12.9113C18.0097 12.6839 18.0097 12.3161 17.7823 12.0887L12.9919 7.29839C12.6242 6.93064 12 7.19194 12 7.70968V10.9516H6.3871C6.06774 10.9516 5.80645 11.2129 5.80645 11.5323V13.4677C5.80645 13.7871 6.06774 14.0484 6.3871 14.0484Z" fill="url(#paint0_linear_19_190)"/>
<defs>
<linearGradient id="paint0_linear_19_190" x1="0" y1="12.5" x2="24" y2="12.5" gradientUnits="userSpaceOnUse">
<stop stop-color="#1D024A"/>
<stop offset="1" stop-color="#060133"/>
</linearGradient>
</defs>
</svg>
